<?xml version="1.0" encoding="UTF-8"?>
<svg version="1.1" xmlns="http://www.w3.org/2000/svg" width="2801" height="1839">
<path d="M0 0 C663.70562771 0 663.70562771 0 761 93 C761.67675781 93.63550781 762.35351562 94.27101563 763.05078125 94.92578125 C768.18411204 99.87029987 772.64467718 105.36944122 777 111 C777.72364746 111.93368408 777.72364746 111.93368408 778.46191406 112.88623047 C832.45182076 183.29820923 845.17432244 279.93514726 845.14526367 366.37768555 C845.14826815 368.20736762 845.15167355 370.03704907 845.15544128 371.86672974 C845.16415827 376.7705087 845.16661422 381.67427014 845.16725707 386.5780561 C845.16797505 389.66379772 845.17012333 392.7495351 845.17275429 395.83527565 C845.18196967 406.66370545 845.1860943 417.49212305 845.18530273 428.32055664 C845.18470417 438.3104118 845.19522236 448.30021258 845.2110464 458.29005402 C845.22425995 466.94996311 845.22948087 475.60985473 845.22884732 484.26977378 C845.22859619 489.40474452 845.2312279 494.53966689 845.24202538 499.6746273 C845.30178209 530.19872827 844.57580919 560.56533675 841.25 590.9375 C841.12644638 592.09004272 841.12644638 592.09004272 841.00039673 593.26586914 C834.37264896 654.43744589 820.83596547 723.31530792 777.28515625 769.55859375 C775.34693646 771.62934139 773.54602669 773.74535715 771.75 775.9375 C757.51191314 792.19540848 738.01121968 804.19061863 719 814 C718.39043457 814.31775391 717.78086914 814.63550781 717.15283203 814.96289062 C699.40421957 824.093306 674.17749339 836 654 836 C654 846.89 654 857.78 654 869 C656.784375 869.515625 659.56875 870.03125 662.4375 870.5625 C707.31699819 879.39315612 752.0251096 897.48839378 785.84375 928.99609375 C787.84701924 930.85782767 789.90573297 932.6173116 792 934.375 C805.36553222 946.07655029 815.81771823 960.90812721 825 976 C825.35916504 976.57991699 825.71833008 977.15983398 826.08837891 977.75732422 C860.06851475 1033.06850179 868.19074149 1104.25497553 872.6875 1167.9375 C872.74843842 1168.79359863 872.80937683 1169.64969727 872.87216187 1170.53173828 C874.84182337 1198.67421312 875.16339938 1226.77743527 875.16725707 1254.97484517 C875.16797769 1257.94704762 875.17013059 1260.91924572 875.17275429 1263.89144707 C875.1819482 1274.3308732 875.18609662 1284.77028675 875.18530273 1295.2097168 C875.18470319 1304.82820161 875.19524649 1314.44663013 875.2110464 1324.06510073 C875.22426396 1332.41940091 875.22948079 1340.77368301 875.22884732 1349.12799352 C875.22859652 1354.07508081 875.23120967 1359.02211787 875.24202538 1363.96919441 C875.30355004 1394.19033793 874.45006495 1424.23590051 871.25 1454.3125 C871.16763092 1455.10198029 871.08526184 1455.89146057 871.00039673 1456.7048645 C861.72261844 1544.72166791 836.71959399 1640.38216461 765.3828125 1698.89453125 C761.35288327 1702.0702213 757.20801949 1705.06598741 753 1708 C752.08589355 1708.6492041 752.08589355 1708.6492041 751.15332031 1709.31152344 C685.69456495 1755.61161869 604.43467073 1772.85916373 525.875 1779.6875 C524.83173553 1779.77890762 524.83173553 1779.77890762 523.76739502 1779.87216187 C349.82435652 1794.89505556 174.59057241 1782 0 1782 C0 1193.94 0 605.88 0 0 Z M368 326 C368 458.33 368 590.66 368 727 C420.12793406 729.17727316 420.12793406 729.17727316 463.1875 706.375 C476.72177808 692.19623249 483.32995598 674.69782834 483.26069641 655.37530518 C483.26452196 654.23339305 483.26834751 653.09148092 483.27228898 651.91496539 C483.282575 648.10374467 483.27863512 644.29267583 483.2746582 640.48144531 C483.27791508 637.74262051 483.28412681 635.00380406 483.29014587 632.26498413 C483.30286933 625.60629107 483.30468944 618.94763838 483.30234561 612.28893521 C483.30055937 606.87306682 483.30231866 601.45721063 483.30657005 596.04134369 C483.30716524 595.26921535 483.30776043 594.49708701 483.30837366 593.70156084 C483.30958547 592.13272915 483.3107996 590.56389746 483.31201603 588.99506578 C483.32288287 574.29487492 483.32073336 559.59470703 483.31463119 544.89451489 C483.30946489 531.46639845 483.3207114 518.03835461 483.33972941 504.61025253 C483.35913453 490.80227645 483.36735899 476.99433466 483.36360615 463.18634486 C483.3616979 455.44229286 483.36414481 447.69830261 483.37832069 439.95426178 C483.39026974 433.36026095 483.39160021 426.76635988 483.37953053 420.17235759 C483.37366587 416.81268601 483.37412062 413.45334502 483.38453293 410.09366226 C483.39503697 406.43981792 483.38686977 402.78645685 483.3742218 399.13262939 C483.38528323 397.56444013 483.38528323 397.56444013 483.39656812 395.96457028 C483.26917059 378.36283104 477.26758845 363.15929496 464.8671875 350.7421875 C435.3240293 322.4870144 410.4331699 326 368 326 Z M368 1054 C368 1186.33 368 1318.66 368 1455 C427.89456201 1457.58934508 427.89456201 1457.58934508 474 1431 C487.22473422 1417.31855574 492.49652473 1400.73487229 492.38768005 1381.94570923 C492.39306559 1380.80587408 492.39845113 1379.66603894 492.40399987 1378.49166334 C492.41819022 1374.71128872 492.41119769 1370.93126869 492.40405273 1367.15087891 C492.4081213 1364.42455652 492.41662749 1361.69825168 492.42485046 1358.97193909 C492.44197068 1352.35856017 492.44289264 1345.74527655 492.43763756 1339.13188125 C492.43358193 1333.75187566 492.43505588 1328.37189804 492.44038582 1322.99189377 C492.44113424 1322.22366019 492.44188266 1321.45542662 492.44265376 1320.66391324 C492.44418538 1319.10281615 492.44572373 1317.54171906 492.44726873 1315.98062198 C492.46096925 1301.36952076 492.45557335 1286.75847321 492.44408352 1272.14737324 C492.43415372 1258.80813594 492.44709178 1245.4690374 492.47101771 1232.12982149 C492.49545545 1218.40080245 492.50500512 1204.6718479 492.49836498 1190.94280756 C492.49488313 1183.24791895 492.49703617 1175.55313697 492.51461601 1167.85826492 C492.52939665 1161.3079407 492.52989744 1154.75779823 492.5125451 1148.20747735 C492.50408037 1144.87175187 492.50397362 1141.53661415 492.51719666 1138.20086479 C492.60068042 1115.38951536 490.74278725 1095.85218888 473.90234375 1078.8125 C442.58111433 1048.16607334 413.24117912 1054 368 1054 Z " fill="#FBFCFC" transform="translate(978,0)"/>
<path d="M0 0 C121.11 0 242.22 0 367 0 C367 239.91 367 479.82 367 727 C405.28 727 443.56 727 483 727 C483 487.09 483 247.18 483 0 C604.44 0 725.88 0 851 0 C851 588.06 851 1176.12 851 1782 C729.56 1782 608.12 1782 483 1782 C482.505 1326.105 482.505 1326.105 482 861 C474.20775746 870.52233132 474.20775746 870.52233132 466.4375 880.0625 C465.87869141 880.75021484 465.31988281 881.43792969 464.74414062 882.14648438 C461.19021324 886.5240334 457.65879255 890.91865188 454.14453125 895.328125 C451.90136271 898.12289236 449.6394877 900.90175056 447.37524414 903.67944336 C442.71844367 909.39249483 438.09372526 915.12423268 433.5625 920.9375 C428.87928402 926.94290405 424.04918543 932.81850071 419.19165039 938.68334961 C415.56310874 943.07401898 411.99841283 947.50510105 408.5 952 C403.76866679 958.07797735 398.89119525 964.02722281 393.98266602 969.96264648 C388.52357549 976.54030447 388.52357549 976.54030447 383.26840323 983.28041363 C381.50540489 985.39407058 379.85915038 987.06006133 377.82802325 988.87349415 C369.30384801 997.01621005 366.79144869 1004.44105855 366.38476086 1016.15031433 C366.27017233 1021.17165296 366.30742015 1026.18713313 366.37560028 1031.20884065 C366.41542354 1035.21584997 366.37905747 1039.22232701 366.35269386 1043.22934818 C366.31689814 1050.24008153 366.32894628 1057.24944086 366.37295341 1064.26010895 C366.43816772 1074.68426761 366.42843931 1085.10743195 366.4037038 1095.53171749 C366.36419417 1113.06951942 366.38494209 1130.60676229 366.44031334 1148.14450073 C366.49492098 1165.50307131 366.52257394 1182.86134217 366.51441383 1200.22000122 C366.5139211 1201.30025187 366.51342837 1202.38050253 366.51292071 1203.49348805 C366.51027853 1208.97977999 366.50715658 1214.46607155 366.50384996 1219.95236313 C366.48130589 1258.78801721 366.51891643 1297.62340245 366.59204102 1336.45898438 C366.66293208 1374.18166151 366.70627016 1411.90420781 366.71313477 1449.62695312 C366.71360513 1452.00004848 366.71407631 1454.37314383 366.71454829 1456.74623919 C366.71823645 1476.02936473 366.72002571 1495.31249045 366.72135473 1514.59561628 C366.72886636 1603.73062924 366.87510933 1692.86491698 367 1782 C245.89 1782 124.78 1782 0 1782 C0 1193.94 0 605.88 0 0 Z " fill="#FBFCFC" transform="translate(0,0)"/>
<path d="M0 0 C1.2785275 -0.00424107 1.2785275 -0.00424107 2.58288383 -0.00856781 C7.11474777 -0.02344993 11.64658092 -0.03274234 16.1784668 -0.03710938 C19.82831084 -0.04144449 23.47791187 -0.05515694 27.12768555 -0.078125 C46.69220573 -0.19858581 66.13606998 0.03313612 85.6484375 1.57421875 C86.42764116 1.63563301 87.20684483 1.69704727 88.00966072 1.76032257 C151.59055786 6.89782838 214.94931499 20.60527639 271.81689453 50.24853516 C273.66106883 51.20766279 275.51355175 52.14915645 277.3671875 53.08984375 C297.35764171 63.35641669 315.74959688 76.45038924 332.65234375 91.203125 C333.72548828 92.12544922 333.72548828 92.12544922 334.8203125 93.06640625 C336.78123178 94.76047879 338.71916538 96.47746295 340.65234375 98.203125 C341.55339844 98.99976562 342.45445312 99.79640625 343.3828125 100.6171875 C355.4643193 111.40679862 365.88419482 123.30492907 375.65234375 136.203125 C376.09400879 136.77724121 376.53567383 137.35135742 376.99072266 137.94287109 C419.95757227 193.86722994 440.33792778 262.80638226 448.90234375 331.953125 C449.05340576 333.15606201 449.20446777 334.35899902 449.36010742 335.59838867 C452.11949022 359.2749203 452.94754928 382.93163285 452.87939453 406.74926758 C452.87765575 409.61631969 452.87896419 412.48336874 452.88012505 415.35042095 C452.88117362 422.16885007 452.87208555 428.98722502 452.85912239 435.80564035 C452.84453732 443.71918668 452.84312292 451.63270199 452.84155273 459.54626465 C452.83111628 480.36939315 452.80319378 501.19250993 452.77734375 522.015625 C452.73609375 568.6075 452.69484375 615.199375 452.65234375 663.203125 C331.54234375 663.203125 210.43234375 663.203125 85.65234375 663.203125 C85.27734375 540.828125 85.27734375 540.828125 85.17431641 502.24853516 C85.13438855 490.79398638 85.13438855 490.79398638 85.09188843 479.33944702 C85.07308996 474.25440718 85.05969814 469.16938459 85.0496521 464.08432007 C85.03662347 457.58082984 85.01415882 451.07743402 84.98511004 444.57399631 C84.97605837 442.19796933 84.97021068 439.82192725 84.96808934 437.44588399 C84.95716597 426.95849456 84.89461496 416.53254223 83.77304077 406.09579468 C83.69788919 405.39046463 83.62273761 404.68513458 83.54530871 403.95843089 C81.44311884 386.90599483 71.29460486 372.14907694 58.27734375 361.390625 C45.60630136 352.05753485 30.17052086 348.59408029 14.65234375 350.203125 C-1.60954125 352.71625322 -15.86488296 361.15523463 -26.49609375 373.62890625 C-36.72697762 387.85285661 -38.49949223 404.90434255 -38.49291992 421.86352539 C-38.49627853 423.11522018 -38.49963715 424.36691498 -38.50309753 425.65653992 C-38.51094405 429.07487551 -38.51427391 432.4931503 -38.51491332 435.91149068 C-38.5156278 438.05919032 -38.51776983 440.20688375 -38.52041054 442.35458183 C-38.52965562 449.88295769 -38.53374742 457.41131592 -38.53295898 464.93969727 C-38.53236189 471.89562324 -38.54284294 478.85147074 -38.55870265 485.80737692 C-38.57191504 491.82228896 -38.57713707 497.83717584 -38.57650357 503.85210222 C-38.5762521 507.42476089 -38.57890287 510.99735009 -38.58968163 514.56999397 C-38.64793403 535.32219173 -38.52417639 556.244205 -34.22265625 576.640625 C-34.01020264 577.66446289 -33.79774902 578.68830078 -33.57885742 579.74316406 C-26.95541212 610.10275131 -13.58579956 643.01025944 9.3984375 664.86328125 C10.65234375 666.203125 10.65234375 666.203125 10.65234375 668.203125 C11.2453125 668.46738281 11.83828125 668.73164062 12.44921875 669.00390625 C14.73263429 670.24682925 16.12661098 671.50714146 17.90234375 673.390625 C20.28058296 675.83910756 22.69033834 678.16383553 25.27734375 680.390625 C28.97948678 683.58138252 32.57072413 686.87879682 36.15234375 690.203125 C39.61507166 693.41486653 43.07883444 696.61415933 46.65234375 699.703125 C50.81800536 703.30395114 54.83834423 707.05703474 58.875 710.80078125 C61.76615992 713.47728429 64.67132507 716.12631224 67.65234375 718.703125 C71.76438668 722.25995538 75.74003995 725.95896184 79.7277832 729.65356445 C84.65898633 734.21922885 89.64540904 738.72064826 94.65234375 743.203125 C100.05572233 748.04783439 105.43598798 752.91521575 110.77734375 757.828125 C114.01451591 760.80530781 117.26372104 763.76265356 120.58984375 766.640625 C124.77344232 770.26524589 128.81668985 774.03697567 132.87475586 777.80053711 C135.76598503 780.47713538 138.67123779 783.12623679 141.65234375 785.703125 C145.76438668 789.25995538 149.74003995 792.95896184 153.7277832 796.65356445 C158.65898633 801.21922885 163.64540904 805.72064826 168.65234375 810.203125 C174.05572233 815.04783439 179.43598798 819.91521575 184.77734375 824.828125 C188.01451591 827.80530781 191.26372104 830.76265356 194.58984375 833.640625 C198.7198956 837.22114812 202.71838445 840.93892262 206.72753906 844.65332031 C211.65880029 849.21909142 216.64532343 853.72057162 221.65234375 858.203125 C227.05572233 863.04783439 232.43598798 867.91521575 237.77734375 872.828125 C241.63811654 876.37882475 245.53831962 879.87264485 249.51171875 883.296875 C251.13556973 884.74293208 252.72327795 886.22970098 254.29296875 887.734375 C263.38179316 896.44068576 273.28337467 903.89573453 283.33691406 911.44824219 C287.8890158 914.89831677 292.28353737 918.52413015 296.65234375 922.203125 C297.68076221 923.05756542 298.70942169 923.91171578 299.73828125 924.765625 C311.91637811 934.91525625 323.30548977 945.76536654 334.52734375 956.953125 C335.0257074 957.44880981 335.52407104 957.94449463 336.03753662 958.4552002 C341.79527257 964.18945261 347.41319502 969.9868013 352.65234375 976.203125 C353.46276123 977.15348633 353.46276123 977.15348633 354.28955078 978.12304688 C411.04814037 1045.03207889 441.56284889 1125.75331238 455.90234375 1242.140625 C455.98551849 1243.0547113 456.06869324 1243.96879761 456.15438843 1244.9105835 C456.39385582 1247.57924401 456.62638319 1250.24839828 456.85546875 1252.91796875 C456.92190079 1253.67437149 456.98833282 1254.43077423 457.05677795 1255.21009827 C457.27811865 1257.87319532 457.46887856 1260.53713474 457.65234375 1263.203125 C457.73969788 1264.43027222 457.827052 1265.65741943 457.91705322 1266.92175293 C458.90635776 1282.15332299 458.83418304 1297.40849531 458.85253239 1312.66492128 C458.85550472 1315.02069983 458.85961662 1317.37647396 458.86403656 1319.73225021 C458.87766273 1327.1780067 458.88734874 1334.62375253 458.89123845 1342.06952059 C458.89524475 1349.68686522 458.90745286 1357.30408417 458.93359375 1364.92138672 C459.18183334 1438.88320862 459.18183334 1438.88320862 455.65234375 1471.203125 C455.56302519 1472.02472673 455.47370663 1472.84632847 455.38168144 1473.69282722 C445.98416191 1559.48125593 421.56935774 1645.62375329 365.65234375 1713.203125 C365.17925781 1713.7791748 364.70617188 1714.35522461 364.21875 1714.94873047 C351.82837188 1729.93960904 338.17247281 1744.42760978 322.65234375 1756.203125 C321.68941406 1756.97140625 320.72648437 1757.7396875 319.734375 1758.53125 C306.55111514 1769.0063611 292.45263123 1778.153779 277.63232422 1786.13085938 C275.65033261 1787.20421414 273.68428501 1788.30309895 271.71875 1789.40625 C253.65349732 1799.41401431 234.25494245 1806.8074419 214.65234375 1813.203125 C213.78915527 1813.48752441 212.9259668 1813.77192383 212.03662109 1814.06494141 C131.12368854 1840.47678246 42.18189412 1843.63578068 -225.43310547 1788.39624023 C-251.15181625 1775.08980753 -274.81161746 1758.4678142 -295.85449219 1738.59472656 C-298.1020128 1736.50007851 -300.41542431 1734.48153737 -302.72265625 1732.453125 C-306.29587363 1729.2481619 -309.51425042 1725.92588251 -312.6015625 1722.25390625 C-313.78275542 1720.86659912 -315.00067657 1719.50987756 -316.25 1718.18359375 C-374.87559094 1655.84614045 -398.01436067 1566.88984783 -405.09765625 1483.765625 C-405.15691284 1483.08317719 -405.21616943 1482.40072937 -405.27722168 1481.69760132 C-407.27738286 1458.15144979 -407.4980019 1434.4979243 -407.46118164 1410.88183594 C-407.46087422 1408.24518865 -407.4609666 1405.60854409 -407.4615469 1402.97189713 C-407.46207073 1396.70648105 -407.45753125 1390.44107974 -407.45104557 1384.17566742 C-407.44374721 1376.90243031 -407.44304552 1369.62919805 -407.44226074 1362.35595703 C-407.43704451 1343.22167741 -407.42308327 1324.08740097 -407.41015625 1304.953125 C-407.38953125 1262.135625 -407.36890625 1219.318125 -407.34765625 1175.203125 C-285.90765625 1175.203125 -164.46765625 1175.203125 -39.34765625 1175.203125 C-38.97265625 1301.328125 -38.97265625 1301.328125 -38.86962891 1341.12548828 C-38.82971193 1352.9167374 -38.82971193 1352.9167374 -38.78720093 1364.70797729 C-38.76836277 1369.95236084 -38.75483012 1375.19672597 -38.7449646 1380.44113159 C-38.73234212 1387.14020247 -38.70954801 1393.83916789 -38.68042254 1400.5381906 C-38.6713416 1402.99078989 -38.66551601 1405.44340403 -38.66340184 1407.89601922 C-38.63937378 1431.78116873 -37.7239008 1452.8594046 -20.72265625 1471.328125 C-6.64684178 1484.7777427 9.57899317 1488.73466485 28.328125 1488.484375 C34.90988844 1488.2525003 40.60548133 1486.79342421 46.65234375 1484.203125 C47.52890625 1483.84089844 48.40546875 1483.47867187 49.30859375 1483.10546875 C62.92082239 1476.90854367 73.54607969 1466.291592 79.40234375 1452.58984375 C86.0023073 1434.7080675 84.80324573 1415.42778984 84.78515625 1396.671875 C84.78583156 1394.18867992 84.78680347 1391.7054849 84.78805542 1389.22229004 C84.7895239 1384.03132494 84.78740672 1378.84037714 84.78271484 1373.64941406 C84.77704205 1367.05823118 84.78028645 1360.46708925 84.78628731 1353.8759079 C84.78993644 1348.74861352 84.78873416 1343.62132851 84.78615952 1338.49403381 C84.78550097 1336.06722509 84.78628029 1333.64041546 84.78863907 1331.21360779 C84.94893664 1302.01128521 84.94893664 1302.01128521 81.90234375 1273.015625 C81.72606445 1271.92741455 81.54978516 1270.8392041 81.36816406 1269.71801758 C74.57944552 1229.44480379 55.66901376 1188.04287898 23.9765625 1161.20703125 C21.01088759 1158.6500712 18.14657762 1155.99229499 15.27734375 1153.328125 C9.78124038 1148.23475335 4.23531033 1143.20129639 -1.34765625 1138.203125 C-6.75103483 1133.35841561 -12.13130048 1128.49103425 -17.47265625 1123.578125 C-20.70982841 1120.60094219 -23.95903354 1117.64359644 -27.28515625 1114.765625 C-31.46875482 1111.14100411 -35.51200235 1107.36927433 -39.57006836 1103.60571289 C-42.46129753 1100.92911462 -45.36655029 1098.28001321 -48.34765625 1095.703125 C-52.45969918 1092.14629462 -56.43535245 1088.44728816 -60.4230957 1084.75268555 C-65.35429883 1080.18702115 -70.34072154 1075.68560174 -75.34765625 1071.203125 C-80.75103483 1066.35841561 -86.13130048 1061.49103425 -91.47265625 1056.578125 C-94.70982841 1053.60094219 -97.95903354 1050.64359644 -101.28515625 1047.765625 C-105.4152081 1044.18510188 -109.41369695 1040.46732738 -113.42285156 1036.75292969 C-118.35411279 1032.18715858 -123.34063593 1027.68567838 -128.34765625 1023.203125 C-133.75103483 1018.35841561 -139.13130048 1013.49103425 -144.47265625 1008.578125 C-147.70982841 1005.60094219 -150.95903354 1002.64359644 -154.28515625 999.765625 C-158.4152081 996.18510188 -162.41369695 992.46732738 -166.42285156 988.75292969 C-171.35411279 984.18715858 -176.34063593 979.68567838 -181.34765625 975.203125 C-186.75103483 970.35841561 -192.13130048 965.49103425 -197.47265625 960.578125 C-201.32383164 957.03625185 -205.21592025 953.55269246 -209.17578125 950.1328125 C-210.90155886 948.59947772 -212.59055836 947.04448984 -214.26953125 945.4609375 C-220.09831363 939.9720491 -225.99012886 934.80230515 -232.39453125 929.99511719 C-242.53685414 922.345709 -251.96606297 913.75475111 -261.34765625 905.203125 C-262.25644531 904.38714844 -263.16523438 903.57117188 -264.1015625 902.73046875 C-275.07065424 892.81300765 -285.83168563 882.53863286 -295.34765625 871.203125 C-296.21261719 870.21570313 -297.07757812 869.22828125 -297.96875 868.2109375 C-358.41740789 799.12245149 -388.69429662 711.94273196 -405.34765625 579.203125 C-405.41436523 578.36797363 -405.48107422 577.53282227 -405.54980469 576.67236328 C-405.91927045 571.85291195 -406.14456645 567.03168692 -406.34765625 562.203125 C-406.3874762 561.28051376 -406.42729614 560.35790253 -406.46832275 559.40733337 C-407.44917048 535.80822597 -407.53534022 512.21615001 -407.53295898 488.59960938 C-407.53287781 484.26265282 -407.5398253 479.9258021 -407.5534668 475.58886719 C-407.63653415 448.72510898 -407.26971515 422.00401644 -405.34765625 395.203125 C-405.27431061 394.16988098 -405.20096497 393.13663696 -405.12539673 392.07208252 C-404.72139056 386.56448786 -404.23090275 381.07080688 -403.66015625 375.578125 C-403.5793985 374.78279358 -403.49864075 373.98746216 -403.41543579 373.16802979 C-400.2602216 342.4997808 -395.11323253 312.04487256 -387.34765625 282.203125 C-387.08017578 281.15705078 -386.81269531 280.11097656 -386.53710938 279.03320312 C-379.54542553 251.9382914 -370.3506324 225.48625348 -358.34765625 200.203125 C-357.86683594 199.18782715 -357.38601563 198.1725293 -356.890625 197.12646484 C-337.34649988 156.2140103 -310.25820535 116.63857246 -275.34765625 87.203125 C-274.82623047 86.75727051 -274.30480469 86.31141602 -273.76757812 85.85205078 C-209.38686033 31.02054001 -125.59889357 9.80108122 -43.17578125 1.96484375 C-42.51962326 1.90158905 -41.86346527 1.83833435 -41.18742371 1.77316284 C-27.45100711 0.51487308 -13.78551542 0.03172122 0 0 Z " fill="#FBFCFC" transform="translate(2342.34765625,-0.203125)"/>
</svg>
