<?xml version="1.0" encoding="UTF-8"?>
<svg version="1.1" xmlns="http://www.w3.org/2000/svg" width="58" height="101">
<path d="M0 0 C19.14 0 38.28 0 58 0 C58 33.33 58 66.66 58 101 C38.86 101 19.72 101 0 101 C0 67.67 0 34.34 0 0 Z " fill="#FEFBFA" transform="translate(0,0)"/>
<path d="M0 0 C4.61353586 0.32612926 6.62422571 2.15963267 9.75 5.4375 C10.52859375 6.24058594 11.3071875 7.04367188 12.109375 7.87109375 C14.23897931 10.2690986 14.90178 11.48434502 15.5 14.625 C14.73876993 19.76330296 11.54189618 22.38910584 8 26 C7.29875 26.845625 6.5975 27.69125 5.875 28.5625 C5.25625 29.036875 4.6375 29.51125 4 30 C1.3828125 29.58984375 1.3828125 29.58984375 -1 29 C-1.02465881 25.03069011 -1.04284023 21.06140966 -1.05493164 17.09204102 C-1.05997057 15.74079614 -1.06680177 14.38955674 -1.07543945 13.03833008 C-1.08752419 11.09979566 -1.09269828 9.161222 -1.09765625 7.22265625 C-1.10289307 6.05484619 -1.10812988 4.88703613 -1.11352539 3.68383789 C-1 1 -1 1 0 0 Z " fill="#EF4F28" transform="translate(4,34)"/>
<path d="M0 0 C1.8125 1.125 1.8125 1.125 3 3 C3.39769128 6.18153026 3.55198782 8.12844028 1.8125 10.875 C-0.65507108 12.40659584 -2.14519831 12.42822025 -5 12 C-6.8125 10.875 -6.8125 10.875 -8 9 C-8.39769128 5.81846974 -8.55198782 3.87155972 -6.8125 1.125 C-4.34492892 -0.40659584 -2.85480169 -0.42822025 0 0 Z " fill="#F05833" transform="translate(39,43)"/>
<path d="M0 0 C3.0625 0.3125 3.0625 0.3125 4.9375 1.5 C6.46909584 3.96757108 6.49072025 5.45769831 6.0625 8.3125 C4.9375 10.125 4.9375 10.125 3.0625 11.3125 C-0.11384515 11.70954314 -2.07753001 11.81183741 -4.875 10.1875 C-5.9375 8.3125 -5.9375 8.3125 -5.75 5.25 C-4.6778982 1.37393966 -4.050591 0.43091394 0 0 Z " fill="#F05833" transform="translate(25.9375,32.6875)"/>
<path d="M0 0 C3.0625 0.3125 3.0625 0.3125 4.9375 1.5 C6.46909584 3.96757108 6.49072025 5.45769831 6.0625 8.3125 C4.9375 10.125 4.9375 10.125 3.0625 11.3125 C-0.11384515 11.70954314 -2.07753001 11.81183741 -4.875 10.1875 C-5.9375 8.3125 -5.9375 8.3125 -5.75 5.25 C-4.6778982 1.37393966 -4.050591 0.43091394 0 0 Z " fill="#F05934" transform="translate(14.9375,21.6875)"/>
<path d="M0 0 C3.0625 0.3125 3.0625 0.3125 4.9375 1.5 C6.46909584 3.96757108 6.49072025 5.45769831 6.0625 8.3125 C4.9375 10.125 4.9375 10.125 3.0625 11.3125 C0 11.625 0 11.625 -2.9375 11.3125 C-4.9375 9.3125 -4.9375 9.3125 -5.1875 5.8125 C-4.87458101 1.43163414 -4.40975115 0.46912246 0 0 Z " fill="#EF532D" transform="translate(14.9375,64.6875)"/>
<path d="M0 0 C3.0625 0.3125 3.0625 0.3125 4.9375 1.5 C6.46909584 3.96757108 6.49072025 5.45769831 6.0625 8.3125 C4.9375 10.125 4.9375 10.125 3.0625 11.3125 C0 11.625 0 11.625 -2.9375 11.3125 C-4.9375 9.3125 -4.9375 9.3125 -5.1875 5.8125 C-4.87458101 1.43163414 -4.40975115 0.46912246 0 0 Z " fill="#EF532D" transform="translate(25.9375,53.6875)"/>
<path d="M0 0 C2.5625 0.375 2.5625 0.375 4.4375 2.125 C5.5625 4.375 5.5625 4.375 5.375 6.5 C4.5625 8.375 4.5625 8.375 2.5625 10.375 C-0.4375 10.6875 -0.4375 10.6875 -3.4375 10.375 C-5.4375 7.375 -5.4375 7.375 -5.1875 4.8125 C-4.1927353 1.57951474 -3.3898104 0.52150929 0 0 Z " fill="#F05B36" transform="translate(47.4375,32.625)"/>
<path d="M0 0 C3 0.25 3 0.25 5 2.25 C4.42307692 8.82692308 4.42307692 8.82692308 3 10.25 C0.0625 10.5 0.0625 10.5 -3 10.25 C-5.14915785 7.02626323 -5.38286803 5.98296326 -5 2.25 C-3 0.25 -3 0.25 0 0 Z " fill="#F05934" transform="translate(26,11.75)"/>
<path d="M0 0 C2.4375 0.8125 2.4375 0.8125 4.4375 2.8125 C4.8125 5.25 4.8125 5.25 4.4375 7.8125 C2.75 9.75 2.75 9.75 0.4375 10.8125 C-2.25 10.375 -2.25 10.375 -4.5625 8.8125 C-5.5625 5.875 -5.5625 5.875 -5.5625 2.8125 C-3.95324459 0.04100457 -3.20087366 -0.23421027 0 0 Z " fill="#EF542E" transform="translate(37.5625,65.1875)"/>
<path d="M0 0 C3 0.25 3 0.25 5 2.25 C5.36487512 5.09602594 5.40199375 6.6364306 3.8125 9.0625 C1.36655047 10.66501866 -0.13381787 10.6909511 -3 10.25 C-5.14915785 7.02626323 -5.38286803 5.98296326 -5 2.25 C-3 0.25 -3 0.25 0 0 Z " fill="#EF5631" transform="translate(37,22.75)"/>
<path d="M0 0 C2.5 0.25 2.5 0.25 4.5 2.25 C4.75 5.25 4.75 5.25 4.5 8.25 C2.5 10.25 2.5 10.25 0.0625 10.5625 C-2.5 10.25 -2.5 10.25 -4.375 9.0625 C-5.5 7.25 -5.5 7.25 -5.3125 4.6875 C-4.22827241 1.43481722 -3.47807945 0.34780795 0 0 Z " fill="#EF542D" transform="translate(47.5,54.75)"/>
<path d="M0 0 C3.29714793 0.32971479 4.6226839 0.6226839 7 3 C7.25 5.5 7.25 5.5 7 8 C5 10 5 10 2 10.3125 C1.01 10.209375 0.02 10.10625 -1 10 C-3 7 -3 7 -2.75 4.4375 C-2 2 -2 2 0 0 Z " fill="#EF532D" transform="translate(24,76)"/>
<path d="M0 0 C2.125 0.375 2.125 0.375 4 1 C4.38218767 2.65614657 4.71395102 4.32457024 5 6 C4 7 4 7 1.4375 7.0625 C0.2309375 7.0315625 0.2309375 7.0315625 -1 7 C-1.625 4.625 -1.625 4.625 -2 2 C-1.34 1.34 -0.68 0.68 0 0 Z " fill="#F16644" transform="translate(46,13)"/>
<path d="M0 0 C1.65 0 3.3 0 5 0 C5.625 2.375 5.625 2.375 6 5 C5.34 5.66 4.68 6.32 4 7 C1.875 6.625 1.875 6.625 0 6 C0 4.02 0 2.04 0 0 Z " fill="#F05F3C" transform="translate(34,3)"/>
<path d="M0 0 C1.67542976 0.28604898 3.34385343 0.61781233 5 1 C4.67 2.65 4.34 4.3 4 6 C2.0625 6.5625 2.0625 6.5625 0 7 C-1 6 -1 6 -1.125 3.5 C-1 1 -1 1 0 0 Z " fill="#F05B37" transform="translate(35,89)"/>
<path d="M0 0 C1.67542976 0.28604898 3.34385343 0.61781233 5 1 C4.67 2.65 4.34 4.3 4 6 C2.0625 6.5625 2.0625 6.5625 0 7 C-1 6 -1 6 -1.125 3.5 C-1 1 -1 1 0 0 Z " fill="#F05A35" transform="translate(46,78)"/>
</svg>
